<?xml version="1.0" encoding="utf-8"?>
<!-- Generator: Adobe Illustrator 24.1.2, SVG Export Plug-In . SVG Version: 6.00 Build 0)  -->
<svg version="1.1" id="Warstwa_3" xmlns="http://www.w3.org/2000/svg" xmlns:xlink="http://www.w3.org/1999/xlink" x="0px" y="0px"
	 viewBox="0 0 430 430" style="enable-background:new 0 0 430 430;" xml:space="preserve">
<style type="text/css">
	.st0{fill:#5c0a33;}
	.st1{fill:#121331;}
	.st2{fill:none;stroke:#5c0a33;stroke-width:12;stroke-linecap:round;stroke-linejoin:round;stroke-miterlimit:10;}
	.st3{fill:none;stroke:#121331;stroke-width:12;stroke-linecap:round;stroke-linejoin:round;stroke-miterlimit:10;}
	.st4{fill:#5c0a33;}
	.st5{fill:#FFFFFF;stroke:#5c0a33;stroke-width:12;stroke-linecap:round;stroke-linejoin:round;stroke-miterlimit:10;}
</style>
<g>
	<g>
		<g>
			<path class="st0" d="M171.97,174.22c-2.33,0-4.55-1.37-5.52-3.65l-22.85-53.71l-24.48,53.84c-1.37,3.02-4.93,4.35-7.95,2.98
				c-3.02-1.37-4.35-4.93-2.98-7.95l30.13-66.25c0.98-2.17,3.17-3.57,5.54-3.52c2.38,0.03,4.52,1.46,5.45,3.65l28.19,66.25
				c1.3,3.05-0.12,6.57-3.17,7.87C173.55,174.06,172.75,174.22,171.97,174.22z"/>
			<path class="st0" d="M165.03,157.91h-43.97c-3.31,0-6-2.69-6-6s2.69-6,6-6h43.97c3.31,0,6,2.69,6,6S168.35,157.91,165.03,157.91z
				"/>
		</g>
		<g>
			<path class="st0" d="M295.61,174.22c-10.94,0-21.59-5.1-28.57-13.9c-2.06-2.6-1.62-6.37,0.97-8.43c2.59-2.06,6.37-1.62,8.43,0.97
				c5.24,6.61,13.91,10.22,22.06,9.18c2.38-0.3,5.77-1.12,8.43-3.32c2.05-1.7,3.36-4.13,3.42-6.35c0.17-6.8-5.03-8.95-16.92-12.23
				c-10.99-3.04-26.05-7.2-24.25-24.2c0.89-8.36,7.26-15.85,15.85-18.63c13.14-4.26,28.61,2.03,35.98,14.64
				c1.67,2.86,0.71,6.54-2.15,8.21c-2.86,1.67-6.54,0.71-8.21-2.15c-4.52-7.73-14.14-11.81-21.92-9.29
				c-4.03,1.31-7.24,4.88-7.62,8.49c-0.63,5.98,2.93,7.89,15.51,11.37c11.03,3.05,26.13,7.22,25.72,24.09
				c-0.14,5.68-3.04,11.4-7.77,15.3c-3.86,3.19-8.89,5.25-14.56,5.98C298.54,174.13,297.07,174.22,295.61,174.22z"/>
		</g>
		<path class="st0" d="M217.23,174.21h-19.71c-3.31,0-6-2.69-6-6v-66.25c0-3.31,2.69-6,6-6h19.71c20.6,0,37.36,16.76,37.36,37.36
			v3.53C254.59,157.45,237.83,174.21,217.23,174.21z M203.52,162.21h13.71c13.98,0,25.36-11.38,25.36-25.36v-3.53
			c0-13.98-11.38-25.36-25.36-25.36h-13.71V162.21z"/>
	</g>
	<path class="st1" d="M215.5,208.92h-98.28c-40.71,0-73.83-33.12-73.83-73.83c0-40.71,33.12-73.83,73.83-73.83h195.56
		c40.71,0,73.83,33.12,73.83,73.83c0,30.53-18.35,57.5-46.75,68.7c-3.08,1.22-6.57-0.3-7.78-3.38c-1.22-3.08,0.3-6.57,3.38-7.78
		c23.78-9.38,39.15-31.97,39.15-57.54c0-34.09-27.74-61.83-61.83-61.83H117.22c-34.09,0-61.83,27.74-61.83,61.83
		s27.74,61.83,61.83,61.83h98.28c3.31,0,6,2.69,6,6S218.81,208.92,215.5,208.92z"/>
	<g>
		<path class="st1" d="M360.22,347.31l-4.72-25.58c0.9-4.5,3.3-19.62-0.34-39.35l-0.96-5.16c-1.87-10.11-3.58-19.34-4.8-25.99
			l-1.93-10.43c0-0.01,0-0.01,0-0.02l-0.87-4.73c-1.71-9.29-10.66-15.45-19.95-13.73c-1.77,0.33-3.42,0.84-4.93,1.51l-0.3-1.64
			c-0.86-4.67-3.49-8.72-7.4-11.41c-3.91-2.69-8.64-3.7-13.3-2.84c-2.94,0.54-5.55,1.85-7.68,3.67c-3.8-3.31-9.02-4.93-14.36-3.95
			c-1.74,0.32-3.38,0.9-4.9,1.7l-3.79-20.5c-0.86-4.67-3.49-8.72-7.4-11.41c-3.91-2.69-8.63-3.7-13.3-2.84
			c-8.94,1.65-14.87,10.27-13.22,19.21l11.55,62.53c-1.64-0.93-3.39-1.7-5.24-2.27c-6.74-2.08-13.86-1.36-20.05,2.02
			c-4.47,2.44-7.25,7.12-7.25,12.21c0,2.07,0.47,4.15,1.37,6.02l14.98,31.14c7.35,15.27,19.68,27.49,34.94,34.69l4.37,23.65
			c0.53,2.89,3.06,4.91,5.89,4.91c0.36,0,0.73-0.03,1.1-0.1l77.67-14.34C358.67,353.7,360.83,350.57,360.22,347.31z M281.46,355.75
			l-3.85-20.85c-0.37-1.99-1.71-3.66-3.58-4.44c-13.94-5.84-25.22-16.55-31.77-30.17l-14.98-31.14c-0.12-0.26-0.19-0.53-0.19-0.82
			c0-0.55,0.26-1.27,1-1.67c3.32-1.81,7.14-2.2,10.76-1.08c3.62,1.11,6.56,3.58,8.28,6.95l5.84,11.4c1.36,2.65,4.45,3.9,7.27,2.94
			c2.82-0.96,4.51-3.84,3.97-6.77l-4.27-23.12c0-0.02-0.01-0.04-0.02-0.07l-12.05-65.24c-0.45-2.44,1.17-4.78,3.6-5.23
			c1.52-0.28,3.05,0.05,4.32,0.92s2.12,2.19,2.4,3.7l13.76,74.49c0.06,0.33,0.16,0.65,0.27,0.96c0.02,0.04,0.03,0.08,0.04,0.13
			c0.11,0.29,0.25,0.56,0.4,0.82c0.03,0.05,0.06,0.1,0.09,0.15c0.16,0.25,0.33,0.5,0.52,0.72c0.03,0.04,0.07,0.08,0.1,0.11
			c0.2,0.23,0.42,0.44,0.65,0.64c0.02,0.01,0.04,0.03,0.05,0.04c0.24,0.19,0.49,0.36,0.75,0.52c0.02,0.01,0.05,0.03,0.07,0.04
			c0.27,0.15,0.55,0.28,0.83,0.39c0.04,0.02,0.08,0.03,0.13,0.05c0.29,0.1,0.58,0.18,0.88,0.24c0.05,0.01,0.09,0.02,0.14,0.02
			c0.31,0.05,0.62,0.08,0.94,0.08c0.01,0,0.02,0,0.03,0c0.02,0,0.04-0.01,0.06-0.01c0.34,0,0.69-0.03,1.04-0.09
			c3.26-0.6,5.41-3.73,4.81-6.99l-7-37.92c-0.25-1.35,0.04-2.71,0.82-3.84s1.95-1.89,3.29-2.14c2.78-0.51,5.46,1.33,5.97,4.11
			l0.66,3.57c0,0,0,0.01,0,0.01l6.34,34.34c0,0,0,0,0,0c0.06,0.33,0.15,0.65,0.27,0.95c0.02,0.04,0.03,0.09,0.04,0.13
			c0.11,0.29,0.25,0.56,0.4,0.82c0.03,0.05,0.06,0.1,0.09,0.15c0.16,0.25,0.33,0.5,0.52,0.72c0.03,0.04,0.07,0.08,0.1,0.11
			c0.2,0.23,0.42,0.44,0.65,0.64c0.02,0.01,0.04,0.03,0.05,0.04c0.24,0.19,0.49,0.37,0.75,0.52c0.02,0.01,0.04,0.03,0.07,0.04
			c0.27,0.15,0.55,0.28,0.83,0.39c0.04,0.02,0.08,0.03,0.13,0.05c0.29,0.1,0.58,0.18,0.88,0.24c0.05,0.01,0.09,0.02,0.14,0.02
			c0.31,0.05,0.62,0.08,0.94,0.08c0.01,0,0.02,0,0.03,0c0.02,0,0.04-0.01,0.06-0.01c0.34,0,0.69-0.03,1.03-0.09
			c1.22-0.23,2.29-0.81,3.11-1.62c1.1-1.08,1.77-2.57,1.8-4.16c0.01-0.4-0.02-0.8-0.1-1.21l-0.76-4.11l-5.58-30.24
			c-0.45-2.43,1.17-4.78,3.6-5.22c3.13-0.58,6.14,1.5,6.72,4.62l6.11,33.09c0.06,0.33,0.16,0.65,0.27,0.96
			c0.01,0.04,0.03,0.08,0.04,0.12c0.11,0.29,0.25,0.56,0.4,0.83c0.03,0.05,0.05,0.09,0.08,0.14c0.16,0.26,0.33,0.5,0.52,0.73
			c0.03,0.04,0.06,0.07,0.1,0.11c0.2,0.23,0.42,0.45,0.66,0.64c0.02,0.01,0.03,0.02,0.05,0.04c0.24,0.19,0.49,0.37,0.76,0.52
			c0.02,0.01,0.04,0.03,0.06,0.04c0.27,0.15,0.55,0.28,0.84,0.39c0.04,0.02,0.08,0.03,0.13,0.05c0.29,0.1,0.58,0.18,0.88,0.24
			c0.05,0.01,0.09,0.02,0.14,0.02c0.31,0.05,0.62,0.08,0.94,0.08c0.01,0,0.02,0,0.03,0c0.02,0,0.04-0.01,0.07-0.01
			c0.34,0,0.68-0.03,1.03-0.09c3.26-0.6,5.41-3.73,4.81-6.99L327.1,253l-2.72-14.75c-0.23-1.27,0.1-1.85,0.5-2.29
			c0.76-0.84,2.2-1.5,3.95-1.83c2.78-0.52,5.46,1.33,5.97,4.11l2.8,15.19c0.01,0.04,0.02,0.07,0.02,0.1
			c1.22,6.64,2.91,15.82,4.78,25.88l0.95,5.16c3.78,20.47,0.23,35.49,0.2,35.63c-0.21,0.83-0.23,1.69-0.08,2.53l3.85,20.86
			L281.46,355.75z"/>
	</g>
</g>
</svg>
